<svg width="17" height="17" viewBox="0 0 17 17" xmlns="http://www.w3.org/2000/svg">
    <path d="M5.314 8.142s-3.858 3.611-3.536 3.536l-1.25 1.54c-.563.563-.556.896-.066 1.386l1.218 1.218c.497.497.834.486 1.385-.065l1.542-1.25c-.105.304 3.535-3.536 3.535-3.536s3.572 3.88 3.536 3.535l1.606 1.317c.497.496.834.485 1.385-.066l1.088-1.088c.537-.537.584-.867.065-1.385l-1.316-1.606c.323.073-3.535-3.536-3.535-3.536s3.859-3.607 3.535-3.535l1.251-1.542c.537-.536.584-.866.065-1.385L14.604.462c-.49-.49-.838-.482-1.385.065l-1.541 1.251c.025-.352-3.536 3.536-3.536 3.536S4.494 1.479 4.607 1.778L3 .462c-.49-.49-.837-.482-1.385.065L.527 1.615C-.035 2.177-.028 2.51.462 3l1.316 1.607c-.325-.07 3.536 3.535 3.536 3.535z" fill="#B1B1B1" fill-rule="evenodd"/>
</svg>
