<?xml version="1.0" encoding="UTF-8" standalone="no"?>
<svg width="17px" height="17px" viewBox="0 0 17 17" version="1.1" xmlns="http://www.w3.org/2000/svg" xmlns:xlink="http://www.w3.org/1999/xlink">
    <!-- Generator: Sketch 40.3 (33839) - http://www.bohemiancoding.com/sketch -->
    <title>close</title>
    <desc>Created with Sketch.</desc>
    <defs></defs>
    <g id="Page-1" stroke="none" stroke-width="1" fill="none" fill-rule="evenodd">
        <g id="Artboard-1" transform="translate(-623.000000, -396.000000)" fill="#B1B1B1">
            <g id="result" transform="translate(90.000000, 262.000000)">
                <g id="settings" transform="translate(307.000000, 21.000000)">
                    <path d="M232.142136,123.142136 C232.142136,123.142136 231.967799,128.423003 232.142136,128.142136 L232.347264,130.116495 C232.347264,130.911366 232.588033,131.142136 233.280854,131.142136 L235.003674,131.142136 C235.706238,131.142136 235.937007,130.895725 235.937007,130.116495 L236.142136,128.142136 C236.28369,128.43108 236.142136,123.142136 236.142136,123.142136 C236.142136,123.142136 241.411985,123.361058 241.142136,123.142136 L243.208802,122.937264 C243.911366,122.937007 244.142136,122.690597 244.142136,121.911366 L244.142136,120.372905 C244.142136,119.613674 243.941879,119.347264 243.208546,119.347264 L241.142136,119.142136 C241.422264,118.965838 236.142136,119.142136 236.142136,119.142136 C236.142136,119.142136 236.320016,113.862367 236.142136,114.142136 L235.937007,112.167777 C235.937007,111.408546 235.736751,111.142136 235.003418,111.142136 L233.280597,111.142136 C232.588033,111.142136 232.347264,111.393418 232.347264,112.167777 L232.142136,114.142136 C231.911471,113.875245 232.142136,119.142136 232.142136,119.142136 C232.142136,119.142136 226.850673,119.010546 227.142136,119.142136 L225.075469,119.347007 C224.382905,119.347264 224.142136,119.598546 224.142136,120.372905 L224.142136,121.911366 C224.142136,122.706238 224.382905,122.937007 225.075725,122.937007 L227.142136,123.142136 C226.862796,123.322317 232.142136,123.142136 232.142136,123.142136 Z" id="close" transform="translate(234.142136, 121.142136) rotate(45.000000) translate(-234.142136, -121.142136) "></path>
                </g>
            </g>
        </g>
    </g>
</svg>