<?xml version="1.0" encoding="UTF-8" standalone="no"?>
<svg width="20px" height="20px" viewBox="0 0 20 20" version="1.1" xmlns="http://www.w3.org/2000/svg" xmlns:xlink="http://www.w3.org/1999/xlink">
    <!-- Generator: Sketch 41.2 (35397) - http://www.bohemiancoding.com/sketch -->
    <title>gear</title>
    <desc>Created with Sketch.</desc>
    <defs></defs>
    <g id="Page-1" stroke="none" stroke-width="1" fill="none" fill-rule="evenodd">
        <g id="Artboard-1" transform="translate(-620.000000, -203.000000)" fill="#B1B1B1">
            <g id="Group" transform="translate(90.000000, 84.000000)">
                <path d="M532.625641,130.794872 C532.830513,131.625641 533.168974,132.4 533.615128,133.097436 L532.369231,134.348462 C531.809744,134.907436 531.815385,135.240769 532.307692,135.733077 L533.523077,136.948718 C534.020256,137.44641 534.358974,137.435897 534.907692,136.887179 L536.215385,135.574615 C536.830769,135.928205 537.497436,136.2 538.205128,136.374359 L538.205128,137.974359 C538.205128,138.769231 538.445897,139 539.138718,139 L540.861538,139 C541.564103,139 541.794872,138.75359 541.794872,137.974359 L541.794872,136.374359 C542.502564,136.2 543.168974,135.928205 543.784615,135.574615 L545.123333,136.917692 C545.677179,137.466667 546.010256,137.477179 546.507436,136.984872 L547.728462,135.763846 C548.215128,135.277179 548.225641,134.94359 547.661282,134.379744 L546.379231,133.097692 C546.831026,132.4 547.169487,131.625897 547.374359,130.795128 L549.066667,130.795128 C549.769231,130.794872 550,130.548462 550,129.769231 L550,128.230769 C550,127.471538 549.799744,127.205128 549.06641,127.205128 L547.374103,127.205128 C547.199744,126.497436 546.927949,125.831026 546.574359,125.215385 L547.794872,124 C548.333333,123.461538 548.379231,123.128205 547.861538,122.615385 L546.641026,121.394872 C546.153846,120.907692 545.805128,120.913077 545.25641,121.461538 L544.097436,122.615385 C543.399744,122.169231 542.625641,121.830513 541.794872,121.625897 L541.794872,120.025641 C541.794872,119.26641 541.594615,119 540.861282,119 L539.138462,119 C538.445897,119 538.205128,119.251282 538.205128,120.025641 L538.205128,121.625641 C537.374359,121.830513 536.6,122.168974 535.902564,122.615128 L534.74359,121.461282 C534.194615,120.912821 533.846154,120.907436 533.358974,121.394615 L532.138462,122.615128 C531.620513,123.127949 531.666667,123.461538 532.205128,123.999744 L533.420513,125.215128 C533.072051,125.830513 532.8,126.497179 532.625641,127.204872 L530.933333,127.204872 C530.240769,127.205128 530,127.45641 530,128.230769 L530,129.769231 C530,130.564103 530.240769,130.794872 530.93359,130.794872 L532.625641,130.794872 L532.625641,130.794872 Z M537.06641,129 C537.06641,127.379487 538.379487,126.066923 540,126.066923 C541.620513,126.066923 542.933077,127.379487 542.933077,129 C542.933077,130.620513 541.620513,131.93359 540,131.93359 C538.379487,131.93359 537.06641,130.620513 537.06641,129 L537.06641,129 Z" id="gear"></path>
            </g>
        </g>
    </g>
</svg>